<svg id="Logo-SCRD-Morado" xmlns="http://www.w3.org/2000/svg" viewBox="0 0 1098.79 190.63"><title>Logo-secretaria-cultura-recreacion-deporte-morado</title><rect id="Linea-separadora2" x="728.39" y="26.37" width="3.01" height="164.26" style="fill:#5c4293"/><rect id="Linea-separadora1" x="209.1" y="26.37" width="3.01" height="164.26" style="fill:#5c4293"/><g id="Marca-Bogota-Morado"><path d="M864.33,109.18A16.19,16.19,0,0,0,848.1,93.09H828.6v51.37h21.22a16,16,0,0,0,12.06-26.83,15.62,15.62,0,0,0,2.45-8.45m-22.67-4.91h6.44a4.91,4.91,0,1,1,0,9.82h-6.44Zm8.16,29h-8.16v-9.84h8.16a4.92,4.92,0,1,1,0,9.84" transform="translate(-50.28 -4.43)" style="fill:#5c4293"/><path d="M894,92.14c-14.31,0-25.95,12.06-25.95,26.85s11.64,26.88,25.95,26.88S920,133.83,920,119,908.34,92.14,894,92.14m0,39.77c-6.61,0-12-5.78-12-12.92s5.38-12.89,12-12.89,12,5.79,12,12.89-5.38,12.92-12,12.92" transform="translate(-50.28 -4.43)" style="fill:#5c4293"/><path d="M951.89,126.9H958v2.82a14.48,14.48,0,0,1-7.65,2.19c-7.58,0-13.74-5.78-13.74-12.92s6.16-12.89,13.74-12.89a14.12,14.12,0,0,1,9.57,3.66l1.35,1.24,9.43-10.3-1.35-1.23a28,28,0,0,0-19-7.33c-15.27,0-27.7,12.06-27.7,26.85s12.43,26.88,27.7,26.88a28.19,28.19,0,0,0,7.65-1.05v.11h14V113H951.89Z" transform="translate(-50.28 -4.43)" style="fill:#5c4293"/><polygon points="993.3 103.75 993.3 140.5 1009.85 140.5 1009.85 103.75 1025.48 103.75 1025.48 87.95 977.61 87.95 977.61 103.75 993.3 103.75" style="fill:#5c4293"/><polygon points="1098.79 162.51 1067.11 78.27 1038.67 78.27 1015.39 140.39 1032.63 140.39 1052.85 89.28 1081.55 162.51 1098.79 162.51" style="fill:#5c4293"/><path d="M1023.86,106.33l0,0A25.88,25.88,0,0,0,1001,92.14c-14.3,0-25.94,12.06-25.94,26.85s11.64,26.88,25.94,26.88,26-12,26-26.88a27.38,27.38,0,0,0-3.08-12.66M1001,131.91c-6.6,0-12-5.78-12-12.92s5.37-12.89,12-12.89,12,5.79,12,12.89-5.39,12.92-12,12.92" transform="translate(-50.28 -4.43)" style="fill:#5c4293"/><polygon points="1074.36 50.97 1089.89 44.61 1069.22 37.21 1055.98 1.79 1042.25 27.87 1014.23 22.12 1034.01 43.53 1024.36 69.45 1059.16 56.95 1084.56 78.26 1074.36 50.97" style="fill:#5c4293"/><polygon points="1016.45 52.36 1022.82 48.27 1015.2 46.66 1013.01 39.06 1009.98 45.54 998.44 43.09 1007.46 52.39 1004.7 59.91 1012.8 54.7 1019.07 59.77 1016.45 52.36" style="fill:#5c4293"/><polygon points="1085.19 13.88 1091.84 9.62 1083.88 7.93 1081.6 0 1077.75 6.62 1066.39 4.2 1075.8 13.91 1072.92 21.76 1081.38 16.32 1087.93 21.62 1085.19 13.88" style="fill:#5c4293"/></g><g id="Texto-SCRD-morado"><path d="M432.65,67.29l1.84-3.37a5.3,5.3,0,0,0,4,2,2.73,2.73,0,0,0,2-.8,2.78,2.78,0,0,0,.78-2,2.82,2.82,0,0,0-.46-1.56,4.86,4.86,0,0,0-1.16-1.24c-.48-.36-1-.71-1.57-1.07S437,58.41,436.38,58a11.48,11.48,0,0,1-1.56-1.38,5.69,5.69,0,0,1-1.17-1.84,6.49,6.49,0,0,1-.45-2.46,6.38,6.38,0,0,1,1.84-4.7,6.77,6.77,0,0,1,5-1.84,8.77,8.77,0,0,1,5.08,1.52l-1.43,3.5a6.5,6.5,0,0,0-3.59-1.33,2.89,2.89,0,0,0-2.17.79,2.78,2.78,0,0,0-.77,2c0,1.31.94,2.52,2.84,3.62.76.41,1.37.78,1.85,1.1a14.14,14.14,0,0,1,1.62,1.34,5.58,5.58,0,0,1,1.35,2,6.63,6.63,0,0,1,.46,2.53,6.78,6.78,0,0,1-1.75,4.75,6.31,6.31,0,0,1-4.92,1.91A8.52,8.52,0,0,1,432.65,67.29Z" transform="translate(-50.28 -4.43)" style="fill:#5c4293"/><path d="M459.63,69.13H448.31v-23h10.94v3.49h-7V55.8h5.63v3.5h-5.63v6.34h7.37Z" transform="translate(-50.28 -4.43)" style="fill:#5c4293"/><path d="M471.32,45.77a8.15,8.15,0,0,1,5.59,1.91l-1.65,3.4A4.38,4.38,0,0,0,473.58,50a5.47,5.47,0,0,0-2.14-.46,5.3,5.3,0,0,0-4.53,2.27,9.7,9.7,0,0,0-1.61,5.69A10.26,10.26,0,0,0,467,63.37a5.16,5.16,0,0,0,4.43,2.43,6.71,6.71,0,0,0,4.27-1.68l1.62,3.33a9.34,9.34,0,0,1-6.18,2.07,8.75,8.75,0,0,1-7.22-3.33,13.44,13.44,0,0,1-2.62-8.58,13.18,13.18,0,0,1,2.69-8.54A9.05,9.05,0,0,1,471.32,45.77Z" transform="translate(-50.28 -4.43)" style="fill:#5c4293"/><path d="M483.77,69.13h-3.95v-23h6.67a6.57,6.57,0,0,1,3,.71A5.84,5.84,0,0,1,492,49.25,7.22,7.22,0,0,1,493,53a7.64,7.64,0,0,1-.94,3.77,6.32,6.32,0,0,1-2.42,2.54v.06a9.84,9.84,0,0,1,.68,1.23l3.82,8.54h-4.34l-3.49-8.57h-2.5Zm0-19.44v7.37h2.11a2.76,2.76,0,0,0,2.18-1,4,4,0,0,0,.89-2.72,3.61,3.61,0,0,0-1.23-3.07,3.16,3.16,0,0,0-1.78-.55Z" transform="translate(-50.28 -4.43)" style="fill:#5c4293"/><path d="M507.85,69.13H496.52v-23h10.94v3.49h-7V55.8h5.63v3.5h-5.63v6.34h7.38Z" transform="translate(-50.28 -4.43)" style="fill:#5c4293"/><path d="M518.59,69.13h-3.92V49.65h-5.53V46.16h15v3.49h-5.57Z" transform="translate(-50.28 -4.43)" style="fill:#5c4293"/><path d="M526.94,69.13h-4l6-23h4.27l6.05,23h-4L534,63.21h-5.63Zm3.53-15.4L529,59.91h4.37l-1.46-6.18-.68-3.56h-.1C530.9,51.53,530.68,52.72,530.47,53.73Z" transform="translate(-50.28 -4.43)" style="fill:#5c4293"/><path d="M545.51,69.13h-4v-23h6.67a6.57,6.57,0,0,1,3,.71,5.84,5.84,0,0,1,2.52,2.38A7.22,7.22,0,0,1,554.7,53a7.64,7.64,0,0,1-.94,3.77,6.32,6.32,0,0,1-2.42,2.54v.06a9.84,9.84,0,0,1,.68,1.23l3.81,8.54H551.5L548,60.56h-2.49Zm0-19.44v7.37h2.11a2.76,2.76,0,0,0,2.18-1,4,4,0,0,0,.89-2.72,3.61,3.61,0,0,0-1.23-3.07,3.16,3.16,0,0,0-1.78-.55Z" transform="translate(-50.28 -4.43)" style="fill:#5c4293"/><path d="M562.21,69.13h-4v-23h4Zm-.55-24.49h-3l2-4.43h3.88Z" transform="translate(-50.28 -4.43)" style="fill:#5c4293"/><path d="M568.39,69.13h-3.95l6-23h4.27l6,23h-3.94l-1.43-5.92h-5.63Zm3.53-15.4-1.49,6.18h4.37l-1.46-6.18-.68-3.56h-.1C572.35,51.53,572.13,52.72,571.92,53.73Z" transform="translate(-50.28 -4.43)" style="fill:#5c4293"/><path d="M595,69.13h-6.37v-23H595a8.23,8.23,0,0,1,6.77,3q2.49,3,2.49,8.41c0,3.61-.83,6.43-2.49,8.48A8.23,8.23,0,0,1,595,69.13ZM592.6,49.69V65.61h2.26a4.48,4.48,0,0,0,3.95-2.07,10.59,10.59,0,0,0,1.39-5.93,10.32,10.32,0,0,0-1.41-5.85,4.49,4.49,0,0,0-3.93-2.07Z" transform="translate(-50.28 -4.43)" style="fill:#5c4293"/><path d="M618.8,69.13H607.48v-23h10.94v3.49h-7V55.8h5.63v3.5h-5.63v6.34h7.37Z" transform="translate(-50.28 -4.43)" style="fill:#5c4293"/><path d="M333.85,82.19a11.44,11.44,0,0,1,7.85,2.67l-2.31,4.77A6,6,0,0,0,337,88a7.93,7.93,0,0,0-3-.64,7.44,7.44,0,0,0-6.36,3.18,13.55,13.55,0,0,0-2.27,8,14.45,14.45,0,0,0,2.32,8.3,7.22,7.22,0,0,0,6.21,3.4,9.4,9.4,0,0,0,6-2.35l2.27,4.67a13.06,13.06,0,0,1-8.66,2.9,12.25,12.25,0,0,1-10.12-4.67q-3.68-4.68-3.68-12t3.77-12A12.7,12.7,0,0,1,333.85,82.19Z" transform="translate(-50.28 -4.43)" style="fill:#5c4293"/><path d="M345.61,104.56V82.73h5.49v21.78c0,3.9,1.59,5.86,4.76,5.86s4.77-2,4.77-5.86V82.73h5.53v21.83a11.12,11.12,0,0,1-2.79,8,9.78,9.78,0,0,1-7.46,2.95,9.88,9.88,0,0,1-7.53-2.9C346.53,110.65,345.61,108,345.61,104.56Z" transform="translate(-50.28 -4.43)" style="fill:#5c4293"/><path d="M387.67,115H371.74V82.73h5.54v27.32h10.39Z" transform="translate(-50.28 -4.43)" style="fill:#5c4293"/><path d="M398.15,115h-5.49V87.63H384.9v-4.9H406v4.9h-7.81Z" transform="translate(-50.28 -4.43)" style="fill:#5c4293"/><path d="M409.23,104.56V82.73h5.49v21.78c0,3.9,1.59,5.86,4.76,5.86s4.77-2,4.77-5.86V82.73h5.53v21.83a11.12,11.12,0,0,1-2.79,8,9.78,9.78,0,0,1-7.46,2.95,9.91,9.91,0,0,1-7.54-2.9C410.15,110.65,409.23,108,409.23,104.56Z" transform="translate(-50.28 -4.43)" style="fill:#5c4293"/><path d="M440.9,115h-5.54V82.73h9.35a9.08,9.08,0,0,1,4.22,1,8.28,8.28,0,0,1,3.54,3.33,10.17,10.17,0,0,1,1.32,5.24,10.73,10.73,0,0,1-1.32,5.29,8.87,8.87,0,0,1-3.4,3.56v.09A11.48,11.48,0,0,1,450,103l5.35,12h-6.08l-4.9-12H440.9Zm0-27.27V98h3a3.87,3.87,0,0,0,3.06-1.45,5.66,5.66,0,0,0,1.25-3.81,5.1,5.1,0,0,0-1.72-4.31,4.45,4.45,0,0,0-2.5-.77Z" transform="translate(-50.28 -4.43)" style="fill:#5c4293"/><path d="M461.64,115H456.1l8.44-32.22h6L479,115h-5.54l-2-8.31h-7.89Zm4.94-21.6L464.5,102h6.12l-2-8.67-.95-5h-.14C467.19,90.26,466.88,91.93,466.58,93.35Z" transform="translate(-50.28 -4.43)" style="fill:#5c4293"/><path d="M484.1,119.71h-4l2.5-10.66h5.21Z" transform="translate(-50.28 -4.43)" style="fill:#5c4293"/><path d="M507.42,115h-5.53V82.73h9.35a9.11,9.11,0,0,1,4.22,1A8.28,8.28,0,0,1,519,87.06a10.27,10.27,0,0,1,1.31,5.24A10.83,10.83,0,0,1,519,97.59a8.89,8.89,0,0,1-3.41,3.56v.09a11.48,11.48,0,0,1,.95,1.73l5.36,12h-6.08l-4.9-12h-3.5Zm0-27.27V98h2.95a3.91,3.91,0,0,0,3.07-1.45,5.65,5.65,0,0,0,1.24-3.81A5.08,5.08,0,0,0,513,88.45a4.45,4.45,0,0,0-2.5-.77Z" transform="translate(-50.28 -4.43)" style="fill:#5c4293"/><path d="M541.18,115H525.3V82.73h15.34v4.9h-9.8v8.62h7.89v4.9h-7.89v8.9h10.34Z" transform="translate(-50.28 -4.43)" style="fill:#5c4293"/><path d="M557.56,82.19a11.44,11.44,0,0,1,7.85,2.67l-2.31,4.77A6,6,0,0,0,560.74,88a7.93,7.93,0,0,0-3-.64,7.44,7.44,0,0,0-6.36,3.18,13.55,13.55,0,0,0-2.27,8,14.45,14.45,0,0,0,2.32,8.3,7.22,7.22,0,0,0,6.21,3.4,9.4,9.4,0,0,0,6-2.35l2.27,4.67a13.06,13.06,0,0,1-8.66,2.9,12.25,12.25,0,0,1-10.12-4.67q-3.68-4.68-3.68-12t3.77-12A12.7,12.7,0,0,1,557.56,82.19Z" transform="translate(-50.28 -4.43)" style="fill:#5c4293"/><path d="M575,115H569.5V82.73h9.35a9.11,9.11,0,0,1,4.22,1,8.28,8.28,0,0,1,3.54,3.33,10.27,10.27,0,0,1,1.31,5.24,10.83,10.83,0,0,1-1.31,5.29,8.89,8.89,0,0,1-3.41,3.56v.09a10.66,10.66,0,0,1,.95,1.73l5.36,12h-6.08l-4.9-12H575Zm0-27.27V98h3a3.91,3.91,0,0,0,3.07-1.45,5.65,5.65,0,0,0,1.24-3.81,5.08,5.08,0,0,0-1.72-4.31,4.43,4.43,0,0,0-2.5-.77Z" transform="translate(-50.28 -4.43)" style="fill:#5c4293"/><path d="M608.79,115H592.91V82.73h15.34v4.9h-9.8v8.62h7.89v4.9h-7.89v8.9h10.34Z" transform="translate(-50.28 -4.43)" style="fill:#5c4293"/><path d="M615.83,115h-5.54l8.44-32.22h6L633.21,115h-5.54l-2-8.31h-7.9Zm4.95-21.6L618.69,102h6.12l-2-8.67-.95-5h-.14C621.38,90.26,621.08,91.93,620.78,93.35Z" transform="translate(-50.28 -4.43)" style="fill:#5c4293"/><path d="M648.46,82.19a11.48,11.48,0,0,1,7.85,2.67L654,89.63A6,6,0,0,0,651.63,88a7.93,7.93,0,0,0-3-.64,7.41,7.41,0,0,0-6.35,3.18,13.48,13.48,0,0,0-2.27,8,14.44,14.44,0,0,0,2.31,8.3,7.23,7.23,0,0,0,6.22,3.4,9.45,9.45,0,0,0,6-2.35l2.27,4.67a13.09,13.09,0,0,1-8.67,2.9A12.25,12.25,0,0,1,638,110.82q-3.67-4.68-3.68-12t3.77-12A12.71,12.71,0,0,1,648.46,82.19Z" transform="translate(-50.28 -4.43)" style="fill:#5c4293"/><path d="M665.93,115h-5.54V82.73h5.54Z" transform="translate(-50.28 -4.43)" style="fill:#5c4293"/><path d="M670.37,98.61q0-7.26,3.54-11.84a12,12,0,0,1,18.88,0q3.54,4.58,3.54,11.89,0,7.49-3.54,12.16a11.92,11.92,0,0,1-18.92,0Q670.38,106.1,670.37,98.61Zm5.68,0c0,3.54.64,6.36,2,8.44a6.12,6.12,0,0,0,10.66,0,15.76,15.76,0,0,0,2-8.42,14.94,14.94,0,0,0-1.93-8.17,6.26,6.26,0,0,0-10.68,0A14.65,14.65,0,0,0,676.05,98.61Zm9.07-18h-4.27l2.77-6.22h5.45Z" transform="translate(-50.28 -4.43)" style="fill:#5c4293"/><path d="M706,115h-5.21V82.73h5.81l8.3,18.24a38.93,38.93,0,0,1,1.4,4.09l.23.81h.18a45.72,45.72,0,0,1-.31-4.94V82.73h5.17V115H715.8l-8.31-18.29c-.39-1-.86-2.34-1.4-4.13l-.23-.77h-.18a46,46,0,0,1,.31,4.95Z" transform="translate(-50.28 -4.43)" style="fill:#5c4293"/><path d="M443.19,159.11H437.7V145.63l-8.26-18.74h6.08l3.59,9.44,1.27,4.27h.13c.52-1.88,1-3.3,1.32-4.27l3.54-9.44h6.08l-8.26,18.74Z" transform="translate(-50.28 -4.43)" style="fill:#5c4293"/><path d="M470.87,159.11h-8.94V126.89h8.94a11.54,11.54,0,0,1,9.48,4.27q3.5,4.26,3.5,11.8t-3.5,11.89A11.54,11.54,0,0,1,470.87,159.11Zm-3.4-27.27v22.33h3.17a6.29,6.29,0,0,0,5.54-2.91q1.95-2.89,1.95-8.3t-2-8.22a6.32,6.32,0,0,0-5.52-2.9Z" transform="translate(-50.28 -4.43)" style="fill:#5c4293"/><path d="M504.22,159.11H488.34V126.89h15.34v4.9h-9.8v8.63h7.89v4.9h-7.89v8.89h10.34Z" transform="translate(-50.28 -4.43)" style="fill:#5c4293"/><path d="M513.93,159.11H508.4V126.89h9.16a8.84,8.84,0,0,1,6.85,3,12.12,12.12,0,0,1,0,15.2,8.81,8.81,0,0,1-6.85,3h-3.63Zm0-27.32v11.3h2.68a4.42,4.42,0,0,0,3.54-1.54,6.13,6.13,0,0,0,1.32-4.13,6,6,0,0,0-1.34-4.08,4.35,4.35,0,0,0-3.43-1.55Z" transform="translate(-50.28 -4.43)" style="fill:#5c4293"/><path d="M529.5,142.78q0-7.26,3.54-11.85a12,12,0,0,1,18.87,0q3.54,4.59,3.54,11.89,0,7.49-3.54,12.16A11.9,11.9,0,0,1,533,155Q529.49,150.27,529.5,142.78Zm5.67,0a15.86,15.86,0,0,0,2,8.44,6.11,6.11,0,0,0,10.66,0,15.73,15.73,0,0,0,2-8.42,15,15,0,0,0-1.93-8.17,6.27,6.27,0,0,0-10.69,0A14.77,14.77,0,0,0,535.17,142.78Z" transform="translate(-50.28 -4.43)" style="fill:#5c4293"/><path d="M565.44,159.11H559.9V126.89h9.35a9.21,9.21,0,0,1,4.22,1,8.31,8.31,0,0,1,3.54,3.34,10.24,10.24,0,0,1,1.31,5.24,10.86,10.86,0,0,1-1.31,5.29,9,9,0,0,1-3.41,3.56v.09a11.34,11.34,0,0,1,1,1.72l5.35,12h-6.08l-4.9-12h-3.49Zm0-27.27v10.35h2.95a3.88,3.88,0,0,0,3.06-1.46,5.62,5.62,0,0,0,1.25-3.81,5.09,5.09,0,0,0-1.73-4.31,4.5,4.5,0,0,0-2.49-.77Z" transform="translate(-50.28 -4.43)" style="fill:#5c4293"/><path d="M593.8,159.11h-5.49V131.79h-7.76v-4.9H601.6v4.9h-7.8Z" transform="translate(-50.28 -4.43)" style="fill:#5c4293"/><path d="M620.93,159.11H605.05V126.89h15.34v4.9h-9.8v8.63h7.89v4.9h-7.89v8.89h10.34Z" transform="translate(-50.28 -4.43)" style="fill:#5c4293"/></g><g id="Escudo-Bogota-Morado"><path d="M58.91,166,57,161l-1.85,5ZM64,171.47H61l-1.18-3.11H54.34l-1.14,3.11H50.28l5.31-13.67h2.94Z" transform="translate(-50.28 -4.43)" style="fill:#5c4293"/><polygon points="14.45 167.03 14.45 153.48 17.22 153.48 17.22 164.72 24.07 164.72 24.07 167.03 14.45 167.03" style="fill:#5c4293"/><path d="M84.27,166.41l2.67.86a6.08,6.08,0,0,1-2,3.34,6.46,6.46,0,0,1-8.11-.78A7.08,7.08,0,0,1,75,164.75a7.43,7.43,0,0,1,1.76-5.29,6,6,0,0,1,4.64-1.89,5.75,5.75,0,0,1,4.08,1.48,5.59,5.59,0,0,1,1.4,2.52l-2.74.66a2.85,2.85,0,0,0-1-1.68,2.9,2.9,0,0,0-1.86-.62,3.13,3.13,0,0,0-2.48,1.1,5.29,5.29,0,0,0-.95,3.52,5.63,5.63,0,0,0,.94,3.68,3,3,0,0,0,2.42,1.1,2.73,2.73,0,0,0,1.89-.7,4.17,4.17,0,0,0,1.15-2.22" transform="translate(-50.28 -4.43)" style="fill:#5c4293"/><path d="M95.74,166l-1.88-5L92,166Zm5.09,5.43h-3l-1.19-3.11H91.17L90,171.47H87.1l5.33-13.67h2.93Z" transform="translate(-50.28 -4.43)" style="fill:#5c4293"/><polygon points="51.29 167.03 51.29 153.48 54.05 153.48 54.05 164.72 60.91 164.72 60.91 167.03 51.29 167.03" style="fill:#5c4293"/><path d="M115.1,160.12v9h2.06a6.69,6.69,0,0,0,1.67-.14,2.47,2.47,0,0,0,1.12-.56,3,3,0,0,0,.72-1.32,9.09,9.09,0,0,0,.27-2.49,8.37,8.37,0,0,0-.27-2.43,3.19,3.19,0,0,0-.78-1.33,2.82,2.82,0,0,0-1.28-.64,13.74,13.74,0,0,0-2.27-.12Zm-2.76-2.32h5a9.69,9.69,0,0,1,2.61.26,4.56,4.56,0,0,1,2.05,1.26,5.73,5.73,0,0,1,1.3,2.21,9.75,9.75,0,0,1,.45,3.23,9.33,9.33,0,0,1-.41,2.91,6,6,0,0,1-1.47,2.41,4.72,4.72,0,0,1-1.94,1.09,8.42,8.42,0,0,1-2.44.29h-5.19Z" transform="translate(-50.28 -4.43)" style="fill:#5c4293"/><path d="M125.25,157.8H128v13.66h-2.76Zm.69-1.26,1.29-2.78h2.93l-2.56,2.78Z" transform="translate(-50.28 -4.43)" style="fill:#5c4293"/><path d="M137.09,166l-1.89-5-1.85,5Zm5.08,5.43h-3L138,168.36h-5.47l-1.14,3.11h-2.92l5.32-13.67h2.94Z" transform="translate(-50.28 -4.43)" style="fill:#5c4293"/><polygon points="96.31 167.03 96.31 153.37 100.44 153.37 102.91 162.69 105.36 153.37 109.5 153.37 109.5 167.03 106.94 167.03 106.94 156.28 104.22 167.03 101.56 167.03 98.88 156.28 98.86 167.03 96.31 167.03" style="fill:#5c4293"/><path d="M169,166l-1.89-5-1.85,5Zm5.09,5.43h-3l-1.2-3.11h-5.47l-1.14,3.11h-2.92l5.31-13.67h3Z" transform="translate(-50.28 -4.43)" style="fill:#5c4293"/><polygon points="126.26 167.03 126.26 161.28 121.26 153.37 124.5 153.37 127.73 158.78 130.88 153.37 134.05 153.37 129.03 161.3 129.03 167.03 126.26 167.03" style="fill:#5c4293"/><path d="M187.17,164.63a5.09,5.09,0,0,0,1.08,3.51,3.68,3.68,0,0,0,5.42,0,5.14,5.14,0,0,0,1.06-3.55,5,5,0,0,0-1-3.5,3.48,3.48,0,0,0-2.73-1.16,3.54,3.54,0,0,0-2.75,1.17,5.13,5.13,0,0,0-1.05,3.53m-2.84.09a8.7,8.7,0,0,1,.62-3.5,6.38,6.38,0,0,1,1.27-1.87,5.43,5.43,0,0,1,1.77-1.24,7.5,7.5,0,0,1,2.95-.54,6.43,6.43,0,0,1,4.83,1.87,8.42,8.42,0,0,1,0,10.38,7.2,7.2,0,0,1-9.67,0,7.05,7.05,0,0,1-1.79-5.11" transform="translate(-50.28 -4.43)" style="fill:#5c4293"/><path d="M201.72,163.58h2a11.34,11.34,0,0,0,2.47-.16,1.42,1.42,0,0,0,.78-.59,1.73,1.73,0,0,0,.28-1,1.58,1.58,0,0,0-1.4-1.65c-.22,0-.89,0-2,0h-2.15Zm-2.78,7.88V157.8h5.81a10.13,10.13,0,0,1,3.19.37,3,3,0,0,1,1.58,1.31,3.93,3.93,0,0,1,.61,2.16,3.72,3.72,0,0,1-.9,2.54,4.42,4.42,0,0,1-2.7,1.26,6.29,6.29,0,0,1,1.47,1.14,13.56,13.56,0,0,1,1.56,2.22l1.68,2.66h-3.31l-2-3a22.77,22.77,0,0,0-1.45-2,2.25,2.25,0,0,0-.83-.57,5.23,5.23,0,0,0-1.4-.15h-.55v5.7Z" transform="translate(-50.28 -4.43)" style="fill:#5c4293"/><rect x="132.46" y="186.55" width="2.57" height="2.57" style="fill:#5c4293"/><path d="M61.74,182.37v8.87h2a7.21,7.21,0,0,0,1.65-.13,2.45,2.45,0,0,0,1.09-.55,3,3,0,0,0,.71-1.29,8.89,8.89,0,0,0,.28-2.46,8,8,0,0,0-.28-2.38,3,3,0,0,0-.77-1.3,2.61,2.61,0,0,0-1.25-.63,12.9,12.9,0,0,0-2.23-.13ZM59,180.09h5a9.87,9.87,0,0,1,2.56.25,4.66,4.66,0,0,1,2,1.24,5.83,5.83,0,0,1,1.28,2.18,9.71,9.71,0,0,1,.44,3.16,8.93,8.93,0,0,1-.41,2.87,6,6,0,0,1-1.43,2.37,4.68,4.68,0,0,1-1.92,1.07,7.77,7.77,0,0,1-2.39.29H59Z" transform="translate(-50.28 -4.43)" style="fill:#5c4293"/><polygon points="21.53 189.09 21.53 175.66 31.48 175.66 31.48 177.94 24.26 177.94 24.26 180.91 30.97 180.91 30.97 183.18 24.26 183.18 24.26 186.81 31.74 186.81 31.74 189.09 21.53 189.09" style="fill:#5c4293"/><path d="M90.69,187.66v3.58h2.5a13.5,13.5,0,0,0,1.87-.08,1.81,1.81,0,0,0,1-.53,1.62,1.62,0,0,0,.38-1.14,1.74,1.74,0,0,0-.29-1,1.69,1.69,0,0,0-.85-.61,9.19,9.19,0,0,0-2.41-.19Zm0-5.34v3.1h1.77c1.05,0,1.7,0,2,0a1.83,1.83,0,0,0,1.09-.48,1.42,1.42,0,0,0,.39-1.05,1.52,1.52,0,0,0-.34-1,1.56,1.56,0,0,0-1-.47c-.27,0-1-.05-2.32-.05ZM88,180.09h5.37a15.47,15.47,0,0,1,2.37.13,3.44,3.44,0,0,1,1.4.56,3.34,3.34,0,0,1,1,1.11,3.12,3.12,0,0,1,.41,1.57,3.07,3.07,0,0,1-.5,1.73,3.23,3.23,0,0,1-1.37,1.19,3.54,3.54,0,0,1,1.87,1.21,3.2,3.2,0,0,1,.67,2,3.89,3.89,0,0,1-.43,1.78,3.69,3.69,0,0,1-1.16,1.39,3.84,3.84,0,0,1-1.83.64c-.44,0-1.54.08-3.26.09H88Z" transform="translate(-50.28 -4.43)" style="fill:#5c4293"/><path d="M103,186.8a5,5,0,0,0,1.06,3.44,3.41,3.41,0,0,0,2.67,1.18,3.45,3.45,0,0,0,2.67-1.16,5.19,5.19,0,0,0,1-3.5,5,5,0,0,0-1-3.44,3.42,3.42,0,0,0-2.69-1.13,3.46,3.46,0,0,0-2.7,1.14,5.1,5.1,0,0,0-1,3.47m-2.79.08a8.67,8.67,0,0,1,.6-3.43A6.46,6.46,0,0,1,102,181.6a5.1,5.1,0,0,1,1.73-1.2,7.28,7.28,0,0,1,2.9-.54,6.27,6.27,0,0,1,4.74,1.85,8.18,8.18,0,0,1,0,10.19,7,7,0,0,1-9.48,0,6.89,6.89,0,0,1-1.77-5" transform="translate(-50.28 -4.43)" style="fill:#5c4293"/><path d="M120.77,188.61v-2.28h5.84v5.33a7.56,7.56,0,0,1-2.47,1.46,8.92,8.92,0,0,1-3.27.63,7.21,7.21,0,0,1-3.67-.9,5.55,5.55,0,0,1-2.36-2.52,8.33,8.33,0,0,1-.79-3.57A7.61,7.61,0,0,1,115,183a5.86,5.86,0,0,1,2.56-2.51,7,7,0,0,1,3.22-.67,6.48,6.48,0,0,1,3.9,1,4.72,4.72,0,0,1,1.81,2.9l-2.69.51a2.89,2.89,0,0,0-1.07-1.56,3.15,3.15,0,0,0-2-.57,3.65,3.65,0,0,0-2.82,1.12,4.74,4.74,0,0,0-1,3.34,5.2,5.2,0,0,0,1.06,3.57,3.5,3.5,0,0,0,2.78,1.2,4.76,4.76,0,0,0,1.71-.33,5.8,5.8,0,0,0,1.46-.8v-1.68Z" transform="translate(-50.28 -4.43)" style="fill:#5c4293"/><path d="M130.58,186.8a5,5,0,0,0,1,3.44,3.64,3.64,0,0,0,5.35,0,5.08,5.08,0,0,0,1-3.5,5,5,0,0,0-1-3.44,3.78,3.78,0,0,0-5.4,0,5.1,5.1,0,0,0-1,3.47m-2.8.08a8.49,8.49,0,0,1,.61-3.43,6.23,6.23,0,0,1,1.25-1.85,5.23,5.23,0,0,1,1.74-1.2,7.23,7.23,0,0,1,2.89-.54,6.36,6.36,0,0,1,4.76,1.85,8.24,8.24,0,0,1,0,10.19,6.24,6.24,0,0,1-4.73,1.85,6.33,6.33,0,0,1-4.76-1.83,6.89,6.89,0,0,1-1.77-5" transform="translate(-50.28 -4.43)" style="fill:#5c4293"/><polygon points="94.9 189.09 94.9 177.94 90.92 177.94 90.92 175.66 101.59 175.66 101.59 177.94 97.61 177.94 97.61 189.09 94.9 189.09" style="fill:#5c4293"/><path d="M157.14,178.86l1.25-2.74h2.88l-2.51,2.74Zm2.79,9.33-1.86-5-1.79,5Zm5,5.33h-3l-1.18-3.06h-5.37l-1.1,3.06h-2.88l5.22-13.43h2.89Z" transform="translate(-50.28 -4.43)" style="fill:#5c4293"/><path d="M172.7,182.37v8.87h2a7.15,7.15,0,0,0,1.65-.13,2.43,2.43,0,0,0,1.1-.55,3.1,3.1,0,0,0,.71-1.29,9,9,0,0,0,.27-2.46,8.09,8.09,0,0,0-.27-2.38,3,3,0,0,0-.78-1.3,2.56,2.56,0,0,0-1.25-.63,12.82,12.82,0,0,0-2.23-.13ZM170,180.09h5a9.73,9.73,0,0,1,2.55.25,4.58,4.58,0,0,1,2,1.24,6.13,6.13,0,0,1,1.29,2.18,10.31,10.31,0,0,1,.43,3.16,8.93,8.93,0,0,1-.41,2.87,5.91,5.91,0,0,1-1.45,2.37,4.49,4.49,0,0,1-1.89,1.07,8,8,0,0,1-2.41.29H170Z" transform="translate(-50.28 -4.43)" style="fill:#5c4293"/><path d="M195.79,188.56l2.61.83a6,6,0,0,1-2,3.28,6.32,6.32,0,0,1-8-.74,7,7,0,0,1-1.73-5,7.29,7.29,0,0,1,1.73-5.19,5.92,5.92,0,0,1,4.55-1.87,5.59,5.59,0,0,1,4,1.47,5.2,5.2,0,0,1,1.37,2.47l-2.68.64a2.8,2.8,0,0,0-2.83-2.25,3.05,3.05,0,0,0-2.43,1.06,5.2,5.2,0,0,0-.93,3.47,5.6,5.6,0,0,0,.92,3.63,2.93,2.93,0,0,0,2.37,1.07,2.68,2.68,0,0,0,1.86-.69,3.9,3.9,0,0,0,1.13-2.17" transform="translate(-50.28 -4.43)" style="fill:#5c4293"/><rect x="149.64" y="186.58" width="2.57" height="2.57" style="fill:#5c4293"/><path d="M95.93,120.67c-1.35-1.9-3.3-2.83-4.29-2.24s-1,2.71.37,4.59,2.94,2.36,3.92,1.77S97.14,122.56,95.93,120.67Z" transform="translate(-50.28 -4.43)" style="fill:#5c4293"/><path d="M125.44,132.21c-2.44-.35-4.52.24-4.77,1.3s1.35,2.6,3.67,3.06,3.92-.35,4.15-1.52S127.76,132.69,125.44,132.21Z" transform="translate(-50.28 -4.43)" style="fill:#5c4293"/><path d="M170.66,57.37c1.09-.11,2.2-1.42,2.08-3.66s-1.47-4.12-2.69-4-2.07,2-2,4.37S169.43,57.49,170.66,57.37Z" transform="translate(-50.28 -4.43)" style="fill:#5c4293"/><path d="M169.82,118.42c-1-.58-2.94.35-4.28,2.25s-1.09,3.53,0,4.12,2.57.12,3.91-1.77S170.8,119,169.82,118.42Z" transform="translate(-50.28 -4.43)" style="fill:#5c4293"/><path d="M145.43,46.64c0-1.06-1.23-2.24-3.56-2.36s-4.38,1.19-4.38,2.24,1.95,2.12,4.26,2.24S145.54,47.82,145.43,46.64Z" transform="translate(-50.28 -4.43)" style="fill:#5c4293"/><path d="M130.43,33.71a51.89,51.89,0,0,1-48-.1v86.07a19.09,19.09,0,0,0,19.43,18.9c10.4,0,19.66,1.45,28.6,7.16,8.94-5.62,18.1-7.16,28.49-7.16,10.74,0,19.54-8.36,19.54-18.9V33.61A52,52,0,0,1,130.43,33.71Zm38.63,13.4s.25-1.88.63-1.88,1,1.77,1,1.77c.73-.71,2.2.11,2.2.11l-.12.36a1.46,1.46,0,0,0-2,1.3c0,.34-1.59.47-1.59.11A1.69,1.69,0,0,0,167,47.7l-.12-.23S168.09,46.4,169.06,47.11Zm1,2.48c2.93-.24,5.5,1.42,5.74,3.65s-1.82,4-4.49,4.42c1.64.59,3.4-.08,4.37-.29,0,0,.33,2.72-3.86,1.84.17,2.21-1.24,3.83-1.77,6a5.23,5.23,0,0,1,1.23-1.14,6.09,6.09,0,0,1,4-.71,4.41,4.41,0,0,1-1.95,2.95,5.5,5.5,0,0,1-3.5.89,9.22,9.22,0,0,0,1,3.59l-2,1.53a11.8,11.8,0,0,1,.24-9.31c1-2.09,1.18-2.9,1.07-3.7-1.34.48-4,1.14-4.36-1.14,0,0,3,.49,4.37-.46-2.71-.08-5-1.68-5.24-3.78S167.1,49.7,170.05,49.59ZM173.29,82l-.14.35A1.67,1.67,0,0,0,171,83.53c0,.35-1.6.23-1.6-.13a1.45,1.45,0,0,0-1.94-1.29l-.12-.35s1.46-.83,2.18-.12c0,0,.63-1.88,1-1.77s.62,1.89.62,1.89C172.05,81,173.29,82,173.29,82ZM141.75,41.46c2.23,0,4,2.13,4,4.79.87-1.59.24-3.45.11-4.33,0,0,2.82-.1,1.74,3.82,2.19.08,3.72,1.49,5.87,2.16a4,4,0,0,1-1-1.26,4.72,4.72,0,0,1-.48-3.89A4.11,4.11,0,0,1,155,44.88a5,5,0,0,1,.6,3.38,10.08,10.08,0,0,0,3.79-.67l1.48,2a13.74,13.74,0,0,1-9.66-1.07,8.66,8.66,0,0,0-3.61-1.35c.31,1.27.72,4-1.53,4.07,0,0,.75-3-.25-4.34-.12,2.71-2,4.81-4.39,4.81s-4.14-2.36-4-5.19S139.32,41.46,141.75,41.46Zm-6.95,4.35c-.74-.82.23-2.12.23-2.12l.37.12c-.6,1.07.61,2,1.23,2,.36,0,.36,1.42,0,1.42a1.72,1.72,0,0,0-1.48,2.12h-.35s-.86-1.3-.14-2.12c0,0-1.95-.35-1.95-.71S134.8,45.81,134.8,45.81Zm-10.15,0c.61,0,1.83-.93,1.21-2l.37-.12s1,1.3.25,2.12c0,0,2.07.36,2.07.71s-1.94.71-1.94.71c.73.82-.13,2.12-.13,2.12h-.36a1.7,1.7,0,0,0-1.47-2.12C124.28,47.23,124.28,45.81,124.65,45.81Zm-22.74,1.78a10.14,10.14,0,0,0,3.79.67,5.07,5.07,0,0,1,.61-3.38,4.06,4.06,0,0,1,2.94-2.13,4.84,4.84,0,0,1-.5,3.89,3.82,3.82,0,0,1-1,1.26c2.14-.67,3.67-2.08,5.87-2.16-1.09-3.92,1.72-3.82,1.72-3.82-.12.88-.75,2.74.12,4.33,0-2.66,1.82-4.79,4-4.79,2.45,0,4.41,2.23,4.41,5.06s-1.72,5.19-4,5.19-4.27-2.1-4.4-4.81c-1,1.36-.24,4.34-.24,4.34-2.25-.09-1.85-2.8-1.53-4.07a8.62,8.62,0,0,0-3.61,1.35,13.72,13.72,0,0,1-9.65,1.07ZM90.8,47s.61-1.89,1-1.77.61,1.88.61,1.88c1-.71,2.2.36,2.2.36l-.12.23a1.68,1.68,0,0,0-2.19,1.18c-.12.36-1.6.24-1.6-.11a1.5,1.5,0,0,0-2-1.3l-.11-.36S90.07,46.29,90.8,47Zm.61,2.59c2.93.11,5.14,2.12,5,4.36s-2.51,3.7-5.23,3.78c1.39,1,4.38.46,4.38.46-.36,2.29-3,1.62-4.37,1.14-.12.8.08,1.61,1.08,3.7,1.46,3.06,1.22,7.42.24,9.31l-2-1.53a9,9,0,0,0,1-3.59,5.37,5.37,0,0,1-3.42-.89,3.92,3.92,0,0,1-2-2.95,6.06,6.06,0,0,1,4,.71,4.81,4.81,0,0,1,1.1,1c-.57-2.12-1.88-3.72-1.67-5.87-4.14.87-3.82-1.84-3.82-1.84,1,.21,2.71.88,4.37.29-2.68-.41-4.62-2.31-4.5-4.42S88.49,49.35,91.41,49.59Zm2.72,32.17-.11.35a1.47,1.47,0,0,0-2,1.29c0,.36-1.46.48-1.57.13a1.69,1.69,0,0,0-2.21-1.18L88.15,82s1.22-.94,2.2-.23c0,0,.24-1.89.61-1.89s1,1.77,1,1.77C92.67,80.93,94.13,81.76,94.13,81.76Zm-9,13.67a4.6,4.6,0,0,1,3.66,1.31A3.17,3.17,0,0,1,90,98.81a7.51,7.51,0,0,1,.45-1.14c1-2.09,1.18-2.9,1.06-3.69-1.34.48-4,1.14-4.37-1.15,0,0,3.2.52,4.52-.56-2.78.07-5.14-1.53-5.38-3.68s2.08-4.24,5-4.48,5.51,1.53,5.75,3.78-1.93,4.09-4.7,4.33c1.72.73,3.57,0,4.58-.21,0,0,.32,2.72-3.84,1.85.36,3.67-3.74,5.74-.92,11.59l-2,1.52a12,12,0,0,1-.51-7,5,5,0,0,1-3.53-1.3A3.4,3.4,0,0,1,85.09,95.43ZM88,118.06l-.23-.22s.61-1.54,1.83-1.3c0,0-.86-1.76-.5-2s1.72,1.18,1.72,1.18c.37-1.06,2-1.06,2-1.06l.12.35a1.6,1.6,0,0,0-1.1,2.25c.24.24-1.1,1.06-1.22.81A1.66,1.66,0,0,0,88,118.06Zm16.26,17.57a9.1,9.1,0,0,0-1.4-3.41,6.12,6.12,0,0,1-3.24,1.29,4.33,4.33,0,0,1-3.55-1.3,5.07,5.07,0,0,1,3.67-1.64,4.68,4.68,0,0,1,1.61.12c-1.76-1.36-3.84-1.87-5.09-3.72-2.82,3-4.22.65-4.22.65.91-.33,2.9-.87,3.85-2.48-2.41,1.52-5.23,1.14-6.54-.7s-.24-4.72,2.2-6.25,5.5-1.3,6.72.58.44,4.5-1.91,6.06c1.7.16,4-2,4-2,1.11,2-1.47,3-2.79,3.36.4.72,1.09,1.26,3.16,2.3a12.76,12.76,0,0,1,6.11,7.31ZM119.69,134c-.73-.13-2.07.58-1.82,1.76h-.37s-.61-1.41.37-2.12c0,0-2-.83-1.84-1.18s2.08-.24,2.08-.24c-.61-1.06.61-2.12.61-2.12l.37.24c-.74.94.24,2.12.85,2.24C120.3,132.69,119.94,134.1,119.69,134Zm22.61,3.17a9.48,9.48,0,0,0-3.52-1.43,4.71,4.71,0,0,1-1.36,3.09,4.63,4.63,0,0,1-3.43,1.53,6.25,6.25,0,0,1,1.36-3.78,4.69,4.69,0,0,1,1.27-.89c-2.24.26-4.1,1.28-6.32.86.25,4-2.54,3.22-2.54,3.22.34-.86,1.37-2.49.92-4.2-.59,2.56-2.83,4.3-5.07,3.84s-3.67-3.18-3.18-5.89,2.94-4.71,5.25-4.24,3.52,2.9,3.14,5.55c1.25-1.09,1.15-4,1.15-4,2.29.62,1.28,3,.63,4.2.82.21,1.71.18,3.89-.43,3.42-1.06,7.93-.23,9.77.94Zm-12-9.16c-6.15-3.85-12-4.62-19.06-4.62a12.31,12.31,0,0,1-12.51-12.5L98.72,53c7.7,4.12,24.62,1.36,32-2.49,7.48,3.89,24.22,6.56,32,2.49l-.07,57.88c0,6.87-6.16,12.5-13.41,12.5C142.24,123.38,136.45,124.18,130.35,128Zm41.8-3.56c-1.28,1.79-4,2.2-6.48.81,1,1.53,2.9,2,3.78,2.37,0,0-1.39,2.39-4.2-.65-1.27,1.84-3.34,2.36-5.13,3.72a4.87,4.87,0,0,1,1.63-.12,5.25,5.25,0,0,1,3.67,1.64,4.5,4.5,0,0,1-3.54,1.3,5.74,5.74,0,0,1-3.24-1.28,9.12,9.12,0,0,0-1.4,3.4l-2.57.12a12.82,12.82,0,0,1,6.1-7.31c2.08-1,2.76-1.58,3.17-2.3-1.34-.39-3.9-1.4-2.8-3.35,0,0,2.2,2.12,3.89,2-2.24-1.56-3.1-4.24-1.8-6.07s4.27-2.12,6.72-.58S173.37,122.56,172.15,124.44Zm1.22-6.38a1.53,1.53,0,0,0-2.45,0c-.12.25-1.47-.57-1.35-.81a1.54,1.54,0,0,0-1-2.25l.12-.35s1.58,0,2,1.06c0,0,1.34-1.41,1.71-1.18s-.5,2-.5,2c1.22-.24,1.84,1.3,1.84,1.3Zm1.86-19.44a5,5,0,0,1-3.48,1.3,11.67,11.67,0,0,1-.56,7l-1.94-1.52c2.92-5.85-1.17-7.92-.92-11.59-4.17.88-3.72-1.85-3.72-1.85.89.21,2.73.94,4.44.21-2.77-.24-4.82-2.17-4.7-4.33s2.81-3.89,5.76-3.78,5.12,2.24,5,4.48-2.6,3.75-5.38,3.68c1.33,1.08,4.52.56,4.52.56-.37,2.29-3,1.63-4.37,1.15-.12.79.09,1.6,1.08,3.69a11.09,11.09,0,0,1,.48,1.12,3.56,3.56,0,0,1,1.23-2.05,4.74,4.74,0,0,1,3.78-1.31A3.83,3.83,0,0,1,175.23,98.62Z" transform="translate(-50.28 -4.43)" style="fill:#5c4293"/><path d="M172.05,88.71c.13-2.36-.86-4.24-1.94-4.36-1.23-.11-2.58,1.65-2.69,4s1,3.53,2.06,3.65S171.94,90.94,172.05,88.71Z" transform="translate(-50.28 -4.43)" style="fill:#5c4293"/><path d="M94,88.36c-.12-2.36-1.47-4.13-2.7-4s-1.95,2-1.82,4.37,1.34,3.41,2.44,3.29S94.13,90.6,94,88.36Z" transform="translate(-50.28 -4.43)" style="fill:#5c4293"/><path d="M90.8,57.37c1.1.12,2.33-1.06,2.45-3.3s-.73-4.24-1.84-4.37-2.56,1.66-2.69,4S89.58,57.25,90.8,57.37Z" transform="translate(-50.28 -4.43)" style="fill:#5c4293"/><path d="M119.51,48.76c2.32-.12,4.16-1.06,4.28-2.24s-2-2.24-4.4-2.24-3.54,1.3-3.54,2.36S117.07,48.88,119.51,48.76Z" transform="translate(-50.28 -4.43)" style="fill:#5c4293"/><path d="M114.63,110.87c.24.47,2.08.11.37,1.29a2.69,2.69,0,0,1-.38.19c.95,2.6.61,5,.9,6.41l2.81.12c-.26-1.23-.35-5.17-2.57-8.74a2.14,2.14,0,0,1-1,.5S114.38,110.51,114.63,110.87Z" transform="translate(-50.28 -4.43)" style="fill:#5c4293"/><path d="M112.76,106.85c-.18-.13-.34-.27-.53-.4,1.47-.51,3.34-1.58,2.32-3.48,0,0-2.35,2.47-4.15,2.31,2.5-1.67,3.49-4.5,2.19-6.55s-4.65-2.48-7.33-.83-3.8,4.71-2.45,6.84,4.24,2.44,7,.94c-1.1,1.63-3.24,2.15-4.14,2.47,0,0,1.5,2.91,4.85-1,.19.13.36.27.54.41a2.2,2.2,0,0,1,.44-.28A5.48,5.48,0,0,1,112.76,106.85Zm-2.87-1.76c-1.09.71-2.8.23-4.27-1.88s-1.34-4.48-.24-5.07,3.17.47,4.51,2.59S111,104.5,109.89,105.09Z" transform="translate(-50.28 -4.43)" style="fill:#5c4293"/><path d="M104.15,98c.25.34,1.6-.47,1.47-.83-.36-.59-.12-2.24,1.11-2.35v-.47s-1.84,0-2.21,1.17c0,0-1.46-1.53-1.83-1.41s.37,2.23.37,2.23c-1.23-.22-1.83,1.42-1.83,1.42l.23.24A1.76,1.76,0,0,1,104.15,98Z" transform="translate(-50.28 -4.43)" style="fill:#5c4293"/><path d="M117.72,114.75a4.73,4.73,0,0,0,3.67-1.77,5,5,0,0,0,1.34-4,5.47,5.47,0,0,0-3.67,1.66A5.81,5.81,0,0,0,117.72,114.75Z" transform="translate(-50.28 -4.43)" style="fill:#5c4293"/><path d="M146.16,110.87c.12-.36-.13-.23-.13-.23a2.19,2.19,0,0,1-.94-.47c-2.2,3.55-2.29,7.48-2.57,8.71l2.81-.11c.3-1.39,0-3.79.9-6.38a1.86,1.86,0,0,1-.44-.23C144.07,111,145.91,111.34,146.16,110.87Z" transform="translate(-50.28 -4.43)" style="fill:#5c4293"/><path d="M155.62,97.9c-2.69-1.65-6-1.3-7.34.83s-.32,4.88,2.2,6.55c-1.82.16-4.16-2.31-4.16-2.31-1,1.9.85,3,2.31,3.48-.21.14-.39.3-.58.44a5.55,5.55,0,0,1,1.16.44,2.18,2.18,0,0,1,.57.35c.21-.16.4-.32.63-.48,3.32,3.86,4.83,1,4.83,1-.89-.32-3-.84-4.13-2.47,2.71,1.5,5.66,1.08,6.95-.94S158.31,99.55,155.62,97.9Zm-.38,5.31c-1.46,2.11-3.19,2.59-4.27,1.88s-1.46-2.36,0-4.36,3.42-3.18,4.51-2.59S156.58,101.08,155.24,103.21Z" transform="translate(-50.28 -4.43)" style="fill:#5c4293"/><path d="M157.81,96.36s.74-2,.37-2.23-1.83,1.41-1.83,1.41c-.37-1.17-2.21-1.17-2.21-1.17v.47c1.23.11,1.47,1.76,1.1,2.35-.11.36,1.22,1.17,1.48.83a1.75,1.75,0,0,1,2.68,0l.24-.24S159.05,96.14,157.81,96.36Z" transform="translate(-50.28 -4.43)" style="fill:#5c4293"/><path d="M141.8,110.64a5.47,5.47,0,0,0-3.66-1.66,4.94,4.94,0,0,0,1.35,4,4.68,4.68,0,0,0,3.65,1.77A5.72,5.72,0,0,0,141.8,110.64Z" transform="translate(-50.28 -4.43)" style="fill:#5c4293"/><path d="M148.05,106.89c-1.39-.34-1.89.32-1.89.32-.24-.08-3.3-3.39-5.57-5.73l2-.4c-1.48-3.39-5.44-4.13-8.12-6.19-2-1.55.26-2.22.79-1.71,5,4.25,9.54,1.31,9.54,1.31-3.55-1.19-5.26-5.2-5.26-5.2a11.35,11.35,0,0,0,13-.58c-4.88.82-8.68-3.77-8.68-3.77a14.69,14.69,0,0,0,12.82-3.3c-2.8.23-9.76-2.71-9.76-2.71,11.12-.35,12.1-8.26,12.22-8.26-3.06,2-11.25,1.06-11.25,1.06,11.62-4.12,10.76-13.66,10.76-13.66C156.17,61.72,145,65.26,145,65.26a7.47,7.47,0,0,0-5.51,6.82,2.72,2.72,0,0,1-2.68,2.36c-3,0-2.95-4.32-2.95-6.36,0-3.07-.11-6.59-2.32-6.59h-4.4c-.79,0-2.15-.1-2.72.59-1.14,1.32-1,4.81-.45,4.11a5.19,5.19,0,0,1,2.8,0c1.42.42.37,4.82.37,5.78a2.64,2.64,0,0,1-2.68,2.47,2.73,2.73,0,0,1-2.7-2.36,7.5,7.5,0,0,0-5.37-6.82s-11.49-3.54-13.93-7.19c0,0-.86,9.65,10.87,13.9,0,0-8.31.71-11.36-1.3.12,0,1.58,8.26,12.71,8.61,0,0-7.33,2.47-10,2.12,0,0,5.25,6,13.08,4.24,0,0-4.29,3.89-9.18,3.07a11.35,11.35,0,0,0,13,.82s-1.6,3.77-5.14,5c0,0,4.52,2.94,9.65-1.31.65-.72,2.74.12.65,1.72-2.79,2.13-6.77,2.64-8.47,6.18l2.06.4c-2.31,2.34-5.4,5.65-5.73,5.73,0,0-.45-.62-1.74-.36a12.6,12.6,0,0,1,3,3.29.91.91,0,0,0,.21-1.39,76.41,76.41,0,0,1,7-4.5l.39,1.91a8,8,0,0,1,4.25-2.83,11.74,11.74,0,0,0-2.3,9.43s.49-1.54,2.94-1.78c0,0-3.43,4.13,2.07,12.15,5.49-8,2.33-12.15,2.33-12.15a3.47,3.47,0,0,1,3.05,1.78,12,12,0,0,0-2.45-9.51,7.81,7.81,0,0,1,4.28,2.91l.39-2a80.93,80.93,0,0,1,6.95,4.55c-.46.5-.18,1,.27,1.42A12.4,12.4,0,0,1,148.05,106.89ZM128.68,65A1.11,1.11,0,0,1,127.46,64a1.14,1.14,0,0,1,1.22-1.19,1.11,1.11,0,0,1,1.1,1.19A1.07,1.07,0,0,1,128.68,65Z" transform="translate(-50.28 -4.43)" style="fill:#5c4293"/><path d="M146.23,112.39a1.77,1.77,0,0,0,2.25-.58c2.19.12,1.84-1.77,1.84-1.77.71-.5.39-1.66-.54-2.36A10.3,10.3,0,0,0,146.23,112.39Z" transform="translate(-50.28 -4.43)" style="fill:#5c4293"/><path d="M111,107.61c-.91.7-1.28,1.92-.54,2.43,0,0-.37,1.89,1.83,1.77a1.7,1.7,0,0,0,2.32.54A10.48,10.48,0,0,0,111,107.61Z" transform="translate(-50.28 -4.43)" style="fill:#5c4293"/><polygon points="82.81 55.99 85.25 52.21 81.46 53.64 80.11 50.23 78.65 53.64 74.74 52.21 77.3 55.99 82.81 55.99" style="fill:#5c4293"/></g></svg>